<?xml version="1.0" encoding="UTF-8"?>
<svg width="9px" height="18px" viewBox="0 0 9 18" version="1.1" xmlns="http://www.w3.org/2000/svg" xmlns:xlink="http://www.w3.org/1999/xlink">
    <title>Facebook</title>
    <g id="Page-1" stroke="none" stroke-width="1" fill="none" fill-rule="evenodd">
        <g id="02_Onboarding" transform="translate(-100.000000, -669.000000)" fill="#4277BC" fill-rule="nonzero">
            <g id="btn" transform="translate(30.000000, 653.000000)">
                <g id="facebook" transform="translate(70.000000, 16.000000)">
                    <path d="M2.39793314,17.3114182 L2.41078395,9.83235145 L0.467752302,9.83235145 C0.215241642,9.83235145 0.0102943229,9.62817211 0.00932155276,9.37566145 L0,6.96488093 C-0.000969331831,6.71098791 0.204592368,6.50465824 0.458485386,6.50465824 L2.39798434,6.50465824 L2.39798434,4.17523203 C2.39798434,1.47195489 4.04898014,0 6.46047743,0 L8.43929678,0 C8.69247302,0 8.89777873,0.205254509 8.89777873,0.458481948 L8.89777873,2.49126445 C8.89777873,2.74438949 8.69262662,2.9495928 8.43955277,2.94974639 L7.22517719,2.95030958 C5.91372939,2.95030958 5.65978517,3.57349688 5.65978517,4.48805445 L5.65978517,6.50470944 L8.54148885,6.50470944 C8.81606603,6.50470944 9.02910271,6.74447169 8.9967453,7.01715453 L8.71100685,9.42793504 C8.68366689,9.65863517 8.48803769,9.83245385 8.25575041,9.83245385 L5.67263598,9.83245385 L5.65978517,17.3114182 L2.39793314,17.3114182 Z" id="Facebook"></path>
                </g>
            </g>
        </g>
    </g>
</svg>