<?xml version="1.0" encoding="UTF-8"?>
<svg width="141px" height="164px" viewBox="0 0 141 164" version="1.1" xmlns="http://www.w3.org/2000/svg" xmlns:xlink="http://www.w3.org/1999/xlink">
    <title>logo</title>
    <defs>
        <polygon id="path-1" points="0 0.235447859 115.919723 0.235447859 115.919723 68.2622205 0 68.2622205"></polygon>
    </defs>
    <g id="Page-1" stroke="none" stroke-width="1" fill="none" fill-rule="evenodd">
        <g id="01_splash" transform="translate(-117.000000, -314.000000)">
            <g id="logo" transform="translate(117.000000, 314.000000)">
                <g id="Espresso" transform="translate(24.000000, 0.000000)">
                    <g id="Group">
                        <g id="Group-4" transform="translate(0.000000, 48.561121)">
                            <mask id="mask-2" fill="white">
                                <use xlink:href="#path-1"></use>
                            </mask>
                            <g id="Clip-2"></g>
                            <path d="M47.2222785,65.9254005 C22.5539241,65.9254005 2.34936709,42.1451668 2.34936709,12.9496322 L2.34936709,2.58992645 L91.8602532,2.58992645 L91.8602532,12.9496322 C91.8602532,42.1451668 71.8906329,65.9254005 47.2222785,65.9254005" id="Fill-1" fill="#B98068" mask="url(#mask-2)"></path>
                            <path d="M110.65519,20.013068 C107.835949,29.9018781 97.0288608,35.5526267 89.5108861,37.2007617 C92.5650633,29.6664302 94.2096203,21.4257552 94.2096203,13.1850801 L94.2096203,5.1798529 L101.962532,5.1798529 C104.781772,5.1798529 107.601013,6.59254005 109.24557,8.94701864 C111.36,12.0078408 112.06481,16.2459023 110.65519,20.013068 Z M89.5108861,12.9496322 C89.5108861,40.9679275 70.4810127,63.5709219 46.9873418,63.5709219 C23.4936709,63.5709219 4.69873418,40.9679275 4.69873418,12.9496322 L4.69873418,4.94440504 L89.5108861,4.94440504 L89.5108861,12.9496322 Z M101.962532,0.235447859 L2.34936709,0.235447859 C0.939746835,0.235447859 0,1.17723929 0,2.58992645 L0,12.9496322 C0,43.5578539 21.1443038,68.2798791 47.2222785,68.2798791 C64.1377215,68.2798791 78.9387342,57.6847254 87.161519,42.1451668 C95.6192405,41.4388232 111.125063,35.3171788 115.118987,21.1903073 C116.763544,16.0104544 115.823797,10.3597058 112.76962,5.88619647 C110.185316,2.35447859 106.191392,0.470895718 101.962532,0.235447859 L101.962532,0.235447859 Z" id="Fill-3" fill="#2D140D" mask="url(#mask-2)"></path>
                        </g>
                        <path d="M39.2344304,43.6167159 C40.6440506,43.6167159 41.5837975,42.6749244 41.5837975,41.2622373 L41.5837975,16.0693164 C41.5837975,14.6566292 40.6440506,13.7148378 39.2344304,13.7148378 C37.8248101,13.7148378 36.8850633,14.6566292 36.8850633,16.0693164 L36.8850633,41.2622373 C36.8850633,42.4394766 37.8248101,43.6167159 39.2344304,43.6167159" id="Fill-5" fill="#2D140D"></path>
                        <path d="M54.9751899,43.6167159 C56.3848101,43.6167159 57.324557,42.6749244 57.324557,41.2622373 L57.324557,2.41334055 C57.324557,1.0006534 56.3848101,0.0588619647 54.9751899,0.0588619647 C53.5655696,0.0588619647 52.6258228,1.0006534 52.6258228,2.41334055 L52.6258228,41.2622373 C52.6258228,42.4394766 53.8005063,43.6167159 54.9751899,43.6167159" id="Fill-6" fill="#2D140D"></path>
                    </g>
                </g>
                <path d="M10.0488281,145.009766 C8.33983521,145.009766 7.01660625,145.651849 6.07910156,146.936035 C5.14159687,148.220221 4.67285156,150.009754 4.67285156,152.304688 C4.67285156,157.080102 6.46482583,159.467773 10.0488281,159.467773 C11.5527419,159.467773 13.3740127,159.091801 15.5126953,158.339844 L15.5126953,162.148438 C13.754874,162.880863 11.792003,163.24707 9.62402344,163.24707 C6.50877349,163.24707 4.12598481,162.302256 2.47558594,160.412598 C0.825187061,158.52294 0,155.810565 0,152.275391 C0,150.048817 0.405269385,148.098153 1.21582031,146.42334 C2.02637124,144.748527 3.19091038,143.46436 4.70947266,142.570801 C6.22803494,141.677242 8.00780229,141.230469 10.0488281,141.230469 C12.1289167,141.230469 14.2187395,141.733393 16.3183594,142.739258 L14.8535156,146.430664 C14.0527304,146.049803 13.2470744,145.717775 12.4365234,145.43457 C11.6259725,145.151366 10.830082,145.009766 10.0488281,145.009766 Z M22.0347002,154.736328 C22.0347002,156.35743 22.3008108,157.583004 22.83304,158.413086 C23.3652693,159.243168 24.2319598,159.658203 25.4331377,159.658203 C26.6245499,159.658203 27.4814749,159.24561 28.0039385,158.42041 C28.526402,157.595211 28.7876299,156.367196 28.7876299,154.736328 C28.7876299,153.115226 28.5239606,151.899418 27.9966143,151.088867 C27.4692679,150.278316 26.6050187,149.873047 25.4038408,149.873047 C24.2124286,149.873047 23.3530622,150.275875 22.8257158,151.081543 C22.2983694,151.887211 22.0347002,153.105461 22.0347002,154.736328 Z M33.3579424,154.736328 C33.3579424,157.402357 32.6548244,159.487297 31.2485674,160.991211 C29.8423103,162.495125 27.8843221,163.24707 25.3745439,163.24707 C23.8022705,163.24707 22.4155656,162.902835 21.2143877,162.214355 C20.0132098,161.525875 19.0903675,160.537116 18.445833,159.248047 C17.8012985,157.958978 17.4790361,156.455087 17.4790361,154.736328 C17.4790361,152.060533 18.1772713,149.980476 19.5737627,148.496094 C20.970254,147.011711 22.933125,146.269531 25.4624346,146.269531 C27.034708,146.269531 28.4214129,146.611325 29.6225908,147.294922 C30.8237687,147.978519 31.746611,148.959955 32.3911455,150.239258 C33.03568,151.518561 33.3579424,153.01757 33.3579424,154.736328 Z M44.860416,149.931641 L40.9932285,149.931641 L40.9932285,162.954102 L36.5254551,162.954102 L36.5254551,149.931641 L34.0645176,149.931641 L34.0645176,147.77832 L36.5254551,146.577148 L36.5254551,145.375977 C36.5254551,143.510733 36.9844348,142.148442 37.9024082,141.289062 C38.8203815,140.429683 40.2900934,140 42.3115879,140 C43.8545643,140 45.2266209,140.22949 46.4277988,140.688477 L45.2852207,143.969727 C44.3867787,143.686522 43.5567089,143.544922 42.7949863,143.544922 C42.1602175,143.544922 41.7012377,143.732908 41.4180332,144.108887 C41.1348286,144.484865 40.9932285,144.965817 40.9932285,145.551758 L40.9932285,146.577148 L44.860416,146.577148 L44.860416,149.931641 Z M56.4766269,149.931641 L52.6094394,149.931641 L52.6094394,162.954102 L48.141666,162.954102 L48.141666,149.931641 L45.6807285,149.931641 L45.6807285,147.77832 L48.141666,146.577148 L48.141666,145.375977 C48.141666,143.510733 48.6006458,142.148442 49.5186191,141.289062 C50.4365925,140.429683 51.9063043,140 53.9277988,140 C55.4707753,140 56.8428319,140.22949 58.0440098,140.688477 L56.9014316,143.969727 C56.0029896,143.686522 55.1729198,143.544922 54.4111973,143.544922 C53.7764285,143.544922 53.3174487,143.732908 53.0342441,144.108887 C52.7510396,144.484865 52.6094394,144.965817 52.6094394,145.551758 L52.6094394,146.577148 L56.4766269,146.577148 L56.4766269,149.931641 Z M64.5660146,149.448242 C63.6187443,149.448242 62.8765642,149.748532 62.3394521,150.349121 C61.8023401,150.94971 61.494726,151.801752 61.4166006,152.905273 L67.6861318,152.905273 C67.6666005,151.801752 67.3785174,150.94971 66.821874,150.349121 C66.2652306,149.748532 65.513285,149.448242 64.5660146,149.448242 Z M65.1958974,163.24707 C62.5591655,163.24707 60.4986392,162.519539 59.0142568,161.064453 C57.5298744,159.609368 56.7876943,157.548841 56.7876943,154.882812 C56.7876943,152.138658 57.4737226,150.017097 58.8457998,148.518066 C60.217877,147.019035 62.1148306,146.269531 64.5367178,146.269531 C66.8511824,146.269531 68.6529222,146.928704 69.9419912,148.24707 C71.2310601,149.565436 71.8755849,151.386707 71.8755849,153.710938 L71.8755849,155.878906 L61.3140615,155.878906 C61.3628899,157.148444 61.7388627,158.139645 62.4419912,158.852539 C63.1451197,159.565433 64.131438,159.921875 65.4009756,159.921875 C66.3873086,159.921875 67.3199165,159.819337 68.1988271,159.614258 C69.0777378,159.409179 69.9956973,159.082033 70.9527334,158.632812 L70.9527334,162.089844 C70.1714795,162.480471 69.3365269,162.770995 68.4478506,162.961426 C67.5591742,163.151856 66.4752007,163.24707 65.1958974,163.24707 Z M81.048957,149.448242 C80.1016866,149.448242 79.3595066,149.748532 78.8223945,150.349121 C78.2852824,150.94971 77.9776683,151.801752 77.8995429,152.905273 L84.1690742,152.905273 C84.1495428,151.801752 83.8614598,150.94971 83.3048164,150.349121 C82.748173,149.748532 81.9962274,149.448242 81.048957,149.448242 Z M81.6788398,163.24707 C79.0421079,163.24707 76.9815816,162.519539 75.4971992,161.064453 C74.0128168,159.609368 73.2706367,157.548841 73.2706367,154.882812 C73.2706367,152.138658 73.956665,150.017097 75.3287422,148.518066 C76.7008193,147.019035 78.597773,146.269531 81.0196601,146.269531 C83.3341248,146.269531 85.1358646,146.928704 86.4249336,148.24707 C87.7140025,149.565436 88.3585273,151.386707 88.3585273,153.710938 L88.3585273,155.878906 L77.7970039,155.878906 C77.8458322,157.148444 78.221805,158.139645 78.9249336,158.852539 C79.6280621,159.565433 80.6143803,159.921875 81.8839179,159.921875 C82.870251,159.921875 83.8028589,159.819337 84.6817695,159.614258 C85.5606801,159.409179 86.4786397,159.082033 87.4356758,158.632812 L87.4356758,162.089844 C86.6544218,162.480471 85.8194693,162.770995 84.9307929,162.961426 C84.0421166,163.151856 82.9581431,163.24707 81.6788398,163.24707 Z M99.3629541,162.954102 L94.8219384,162.954102 L94.8219384,145.317383 L89.0065087,145.317383 L89.0065087,141.538086 L105.178384,141.538086 L105.178384,145.317383 L99.3629541,145.317383 L99.3629541,162.954102 Z M119.5666,162.954102 L107.232615,162.954102 L107.232615,141.538086 L119.5666,141.538086 L119.5666,145.258789 L111.773631,145.258789 L111.773631,149.960938 L119.024607,149.960938 L119.024607,153.681641 L111.773631,153.681641 L111.773631,159.204102 L119.5666,159.204102 L119.5666,162.954102 Z M140.019269,162.954102 L134.863019,162.954102 L129.252667,153.930664 L127.333722,155.307617 L127.333722,162.954102 L122.792706,162.954102 L122.792706,141.538086 L127.333722,141.538086 L127.333722,151.337891 L129.120831,148.818359 L134.921612,141.538086 L139.960675,141.538086 L132.489972,151.015625 L140.019269,162.954102 Z" id="CoffeeTEK" fill="#2D140D"></path>
                <rect id="Rectangle-2" fill="#2D140D" x="1" y="127" width="140" height="5" rx="2.5"></rect>
            </g>
        </g>
    </g>
</svg>