<?xml version="1.0" encoding="UTF-8"?>
<svg width="28px" height="26px" viewBox="0 0 28 26" version="1.1" xmlns="http://www.w3.org/2000/svg" xmlns:xlink="http://www.w3.org/1999/xlink">
    <title>Fill 1</title>
    <g id="Page-1" stroke="none" stroke-width="1" fill="none" fill-rule="evenodd" opacity="0.400000006">
        <g id="06_Customize-drink" transform="translate(-209.000000, -552.000000)" fill="#2D140D">
            <g id="additions" transform="translate(29.000000, 552.000000)">
                <path d="M207.497784,21.4621454 C207.469064,21.4494623 204.647214,20.1817146 201.011846,17.8339293 C200.893001,17.6231078 200.762555,17.4160912 200.616122,17.2151343 C200.508313,17.0671646 200.392298,16.922859 200.269634,16.7824992 C200.451437,16.7412086 200.630412,16.6923082 200.805141,16.635516 C204.275825,15.5124967 205.977424,11.533663 206.048165,11.3646957 C206.210161,10.97927 206.064859,10.5345155 205.706628,10.3170705 C205.570098,10.2339257 202.726744,8.5390389 199.702576,8.84456102 C201.220107,6.89699843 202.434301,4.90095816 203.325211,2.8827929 C203.333558,2.86461377 203.340774,2.84601187 203.347423,2.82726905 C203.872886,1.36631526 203.808229,0.51245985 203.145105,0.13985815 C202.300035,-0.335758618 201.44011,0.429878686 200.148525,2.00808082 C199.852263,2.3703951 199.907016,2.90266311 200.270624,3.1977569 C200.566886,3.43831329 200.977041,3.44648685 201.278256,3.24567088 C200.395552,5.00214122 199.247146,6.74170075 197.850016,8.44490201 C197.668212,4.9642328 194.582075,2.28443178 194.447243,2.16887452 C194.12891,1.89689219 193.659191,1.89689219 193.340858,2.16887452 C193.208714,2.28175423 190.260804,4.8436023 189.956336,8.20815055 C188.6465,6.58104797 187.563317,4.92068745 186.721077,3.24567088 C187.022858,3.44705054 187.432871,3.43831329 187.729133,3.1977569 C188.092741,2.90266311 188.147494,2.3703951 187.851232,2.00808082 C186.560213,0.429878686 185.700288,-0.334772154 184.854653,0.13985815 C184.191529,0.51245985 184.126872,1.36687895 184.652476,2.82726905 C184.659125,2.84601187 184.666199,2.86461377 184.674547,2.8827929 C185.569842,4.9113865 186.791252,6.91672772 188.31996,8.87316849 C185.209489,8.45152541 182.222389,10.2323755 182.082039,10.3170705 C181.723949,10.5345155 181.578506,10.9798337 181.739936,11.3652594 C181.810677,11.5342267 183.512842,15.5124967 186.983526,16.635516 C187.158821,16.6923082 187.33723,16.7412086 187.519599,16.7824992 C187.396935,16.922859 187.28092,17.0671646 187.173111,17.215698 C186.978574,17.4816206 186.811201,17.7585353 186.664626,18.0415096 C183.19564,20.251049 180.528996,21.450026 180.501973,21.4621454 C180.074133,21.6532377 179.882991,22.1530933 180.074133,22.579105 C180.215614,22.8933644 180.525176,23.0795243 180.849593,23.0795243 C180.965608,23.0795243 181.083321,23.0558491 181.196081,23.0056804 C181.292289,22.9628396 183.187293,22.1118027 185.898645,20.5010472 C185.588093,22.5868558 186.013104,24.4325307 186.040693,24.5492153 C186.132514,24.93295 186.476739,25.2 186.866379,25.2 C186.889582,25.2 186.912785,25.1988726 186.935988,25.1971815 C187.118924,25.1823846 191.44359,24.7992136 193.58845,21.8579995 C193.696825,21.7098889 193.798409,21.5557186 193.894616,21.3960523 C193.990258,21.5557186 194.092408,21.7098889 194.200217,21.8579995 C196.345643,24.7992136 200.670309,25.1823846 200.853245,25.1971815 C201.272596,25.2297349 201.651201,24.9554978 201.747974,24.5492153 C201.776695,24.4304168 202.219391,22.5037109 201.867385,20.3612511 C204.700836,22.0616339 206.702517,22.9605849 206.804242,23.0056804 C206.916437,23.0558491 207.034715,23.080088 207.150164,23.080088 C207.474582,23.080088 207.784709,22.8933644 207.925625,22.5796687 C208.117332,22.1530933 207.925625,21.652674 207.497784,21.4621454 Z M204.133778,11.4071137 C203.551864,12.4557254 202.249809,14.3901821 200.281235,15.0270153 C199.650086,15.2312135 198.939283,15.3016752 198.170047,15.2372732 C197.776021,15.2059881 197.412838,15.4454172 197.291305,15.8185825 C197.262585,15.906096 197.249851,15.9953006 197.250417,16.0833778 L197.074697,15.0650647 L199.023323,13.1735896 C199.254928,12.9483939 199.337836,12.6125732 199.238375,12.3064874 C199.138347,12.0005425 198.872503,11.7776016 198.552472,11.7312377 L197.346483,11.5562108 C197.841244,11.1790995 198.355105,10.9011984 198.879577,10.7316674 C200.838814,10.0975117 203.041682,10.9006347 204.133778,11.4071137 Z M195.325985,14.9131491 L195.570324,16.3339397 L194.289208,15.6628621 C194.165978,15.5984601 194.030014,15.5659067 193.894616,15.5659067 C193.758653,15.5659067 193.623255,15.5984601 193.499458,15.6628621 L192.218343,16.3339397 L192.463248,14.9131491 C192.510219,14.6383483 192.418964,14.3587561 192.218909,14.1644227 L191.182698,13.158088 L192.614633,12.9506487 C192.891512,12.9110492 193.130333,12.7375723 193.254129,12.4882787 L193.894616,11.1957285 L194.535103,12.4882787 C194.6589,12.738136 194.897721,12.9110492 195.174034,12.9506487 L196.606535,13.158088 L195.569758,14.1644227 C195.369703,14.3587561 195.278447,14.6383483 195.325985,14.9131491 Z M193.895748,3.99594753 C194.717473,4.8712233 196.161575,6.70266494 196.161575,8.76479833 C196.161575,9.4258704 196.009624,10.1206232 195.709542,10.8307366 C195.692422,10.8714635 195.679123,10.9138815 195.66922,10.9557358 L194.655646,8.91065414 C194.512466,8.62218376 194.217336,8.43940599 193.894616,8.43940599 C193.571331,8.43940599 193.276201,8.62218376 193.133021,8.91065414 L192.120013,10.9561585 C192.10728,10.9050033 192.091293,10.8544118 192.068656,10.8059341 C191.775647,10.1045579 191.627092,9.41811961 191.627092,8.76479833 C191.627092,6.71252958 193.075014,4.87390085 193.895748,3.99594753 Z M187.507998,15.0270153 C185.548903,14.3928596 184.240198,12.4534706 183.656021,11.4042952 C184.745288,10.8968298 186.940515,10.0941296 188.909655,10.7316674 C189.434128,10.9011984 189.947989,11.1790995 190.44275,11.5562108 L189.236195,11.7312377 C188.91673,11.7776016 188.651027,12.0005425 188.551,12.3064874 C188.450831,12.6125732 188.534305,12.9483939 188.76591,13.1735896 L190.714111,15.0650647 L190.539947,16.0790091 C190.539381,15.6539839 190.221614,15.2935016 189.796603,15.2406553 C189.731946,15.2329045 189.667289,15.2323408 189.603198,15.2384005 C188.839481,15.3011115 188.134761,15.230227 187.507998,15.0270153 Z M200.22153,23.3954747 C199.040442,23.1687289 196.791168,22.5323184 195.574144,20.8637843 C195.189456,20.3364486 194.904936,19.6962332 194.728084,18.9601898 C194.668379,18.6519902 194.43734,18.3904362 194.113488,18.3046138 C193.669661,18.1873654 193.213241,18.4417323 193.081098,18.8792998 C193.075014,18.89917 193.070062,18.9188993 193.065676,18.9393332 C192.888824,19.6846775 192.603031,20.33208 192.214523,20.8637843 C191.004148,22.5234402 188.749923,23.1636556 187.567137,23.3937837 C187.420704,22.20143 187.335673,19.8685826 188.546472,18.2093495 C188.931161,17.6814501 189.455067,17.2141478 190.104467,16.8188575 C190.285139,16.7180972 190.422801,16.5534985 190.491844,16.3570512 L190.254296,17.7365512 C190.199543,18.0541927 190.330555,18.3745118 190.591871,18.563913 C190.853329,18.7527505 191.199817,18.7774121 191.48561,18.6277513 L193.894051,17.3666271 L196.302632,18.6277513 C196.426853,18.6932808 196.562251,18.7251295 196.697224,18.7251295 L196.699913,18.7251295 C197.168641,18.7251295 197.548236,18.3464681 197.548236,17.8795885 C197.548236,17.8085631 197.54003,17.7397924 197.523335,17.6736993 L197.296823,16.3576149 C197.359783,16.5387016 197.484145,16.6983679 197.658309,16.8034968 C198.319169,17.2014647 198.851988,17.6748267 199.242195,18.2093495 C200.45356,19.8695691 200.367963,22.2048122 200.22153,23.3954747 Z" id="Fill-1"></path>
            </g>
        </g>
    </g>
</svg>