<?xml version="1.0" encoding="UTF-8"?>
<svg width="55px" height="42px" viewBox="0 0 55 42" version="1.1" xmlns="http://www.w3.org/2000/svg" xmlns:xlink="http://www.w3.org/1999/xlink">
    <title>Cappuccino</title>
    <defs>
        <polygon id="path-1" points="0.00769230769 0.0770642202 54.8862821 0.0770642202 54.8862821 42 0.00769230769 42"></polygon>
    </defs>
    <g id="Page-1" stroke="none" stroke-width="1" fill="none" fill-rule="evenodd">
        <g id="05_Select-drink" transform="translate(-30.000000, -237.000000)">
            <g id="Cappuccino" transform="translate(30.000000, 237.000000)">
                <g id="Group">
                    <polyline id="Fill-1" fill="#FDE9DA" points="4.51282051 40.9724771 1.02564103 33.3688073 47.3846154 33.3688073 43.7948718 40.9724771 4.51282051 40.9724771"></polyline>
                    <g id="Group-5">
                        <mask id="mask-2" fill="white">
                            <use xlink:href="#path-1"></use>
                        </mask>
                        <g id="Clip-3"></g>
                        <path d="M10.1538462,33.3688073 C6.66666667,33.3688073 4.92307692,28.9504587 4.71794872,27.2036697 C4.30769231,21.4495413 4.61538462,6.55045872 4.71794872,2.0293578 L4.71794872,1.00183486 L43.4871795,1.00183486 L43.4871795,2.0293578 C43.5897436,6.44770642 43.8974359,21.4495413 43.4871795,27.2036697 C43.3846154,28.9504587 41.5384615,33.3688073 38.0512821,33.3688073 L10.1538462,33.3688073" id="Fill-2" fill="#B98875" mask="url(#mask-2)"></path>
                        <path d="M44.7179487,24.840367 C44.9230769,20.1137615 44.8205128,12.7155963 44.7179487,7.47522936 C49.5384615,7.68073394 53.2307692,11.7908257 52.9230769,16.6201835 C52.7179487,21.0385321 49.1282051,24.6348624 44.7179487,24.840367 Z M42.5641026,27.2036697 C42.4615385,28.7449541 40.8205128,32.3412844 38.1538462,32.3412844 L10.1538462,32.3412844 C7.48717949,32.3412844 5.94871795,28.7449541 5.74358974,27.2036697 C5.33333333,21.4495413 5.64102564,6.24220183 5.74358974,2.13211009 L42.5641026,2.13211009 C42.6666667,6.24220183 42.974359,21.4495413 42.5641026,27.2036697 Z M45.7435897,34.3963303 L43.1794872,39.9449541 L5.23076923,39.9449541 L2.56410256,34.3963303 L45.7435897,34.3963303 Z M44.7179487,5.42018349 C44.7179487,2.95412844 44.6153846,1.31009174 44.6153846,1.10458716 C44.6153846,0.488073394 44.2051282,0.0770642202 43.5897436,0.0770642202 L4.71794872,0.0770642202 C4.1025641,0.0770642202 3.69230769,0.488073394 3.69230769,1.10458716 C3.69230769,1.9266055 3.17948718,20.6275229 3.69230769,27.306422 C3.8974359,29.1559633 4.71794872,30.9027523 5.94871795,32.3412844 L1.02564103,32.3412844 C0.41025641,32.3412844 0,32.7522936 0,33.3688073 C0,33.4715596 0,33.6770642 0.102564103,33.7798165 L3.69230769,41.3834862 C3.8974359,41.7944954 4.20512821,42 4.61538462,42 L43.8974359,42 C44.3076923,42 44.6153846,41.7944954 44.8205128,41.3834862 L48.4102564,33.7798165 C48.6153846,33.266055 48.4102564,32.6495413 47.8974359,32.4440367 C47.6923077,32.3412844 47.4871795,32.3412844 47.3846154,32.3412844 L42.3589744,32.3412844 C43.5897436,30.9027523 44.4102564,29.1559633 44.6153846,27.306422 C44.6153846,27.2036697 44.6153846,26.9981651 44.6153846,26.8954128 C50.5641026,26.6899083 55.1794872,21.6550459 54.8717949,15.6954128 C54.6666667,10.146789 50.2564103,5.72844037 44.7179487,5.42018349 L44.7179487,5.42018349 Z" id="Fill-4" fill="#231514" mask="url(#mask-2)"></path>
                    </g>
                </g>
            </g>
        </g>
    </g>
</svg>