<?xml version="1.0" encoding="UTF-8"?>
<svg width="30px" height="29px" viewBox="0 0 30 29" version="1.1" xmlns="http://www.w3.org/2000/svg" xmlns:xlink="http://www.w3.org/1999/xlink">
    <title>编组</title>
    <g id="Page-1" stroke="none" stroke-width="1" fill="none" fill-rule="evenodd">
        <g id="05_Select-drink" transform="translate(-219.000000, -738.000000)">
            <g id="iPhone-X/Bars/Tab-Bar/3-Items" transform="translate(0.000000, 728.000000)">
                <g id="编组" transform="translate(219.000000, 10.000000)">
                    <g id="cart" transform="translate(0.000000, 5.000000)" fill="#C28E79" opacity="0.5">
                        <path d="M21.925,5.625 L2.075,5.625 C1.96454305,5.625 1.875,5.53545695 1.875,5.425 L1.875,4.75270313 L1.875,4.75270313 C1.875,4.43245312 2.13557812,4.171875 2.45582813,4.171875 L3.38432813,4.171875 L3.8173125,2.614125 L3.82420312,2.58778125 C3.92784375,2.16810937 4.30209375,1.875 4.734375,1.875 L19.265625,1.875 C19.6979063,1.875 20.0721562,2.16810937 20.1757969,2.58778125 L20.6156719,4.171875 L21.5625,4.171875 C21.8779219,4.171875 22.125,4.42701562 22.125,4.75270313 L22.125,5.425 C22.125,5.53545695 22.0354569,5.625 21.925,5.625 Z M19.1467969,12 L15.4150313,12 C14.6402813,10.8906094 13.4083594,10.171875 12.0234375,10.171875 C10.6385156,10.171875 9.40654688,10.8906094 8.63184375,12 L4.85320313,12 L4.34615625,7.5 L19.6538438,7.5 L19.1467969,12 Z M16.1887031,13.875 L18.9355313,13.875 L18.7242656,15.75 L16.1614688,15.75 C16.2294844,15.425625 16.265625,15.0883594 16.265625,14.7421875 C16.265625,14.4457031 16.2389531,14.155875 16.1887031,13.875 Z M9.65625,14.7421875 C9.65625,13.2559687 10.7181562,12.046875 12.0234375,12.046875 C13.3287188,12.046875 14.390625,13.2559687 14.390625,14.7421875 C14.390625,16.2284062 13.3287188,17.4375 12.0234375,17.4375 C10.7181562,17.4375 9.65625,16.2284062 9.65625,14.7421875 Z M5.99404688,22.125 L5.487,17.625 L8.73421875,17.625 C9.51271875,18.6540469 10.698,19.3125 12.0234375,19.3125 C13.348875,19.3125 14.5341563,18.6540469 15.3126563,17.625 L18.513,17.625 L18.0059531,22.125 L5.99404688,22.125 Z M7.88540625,15.75 L5.27573438,15.75 L5.06446875,13.875 L7.85817188,13.875 C7.807875,14.155875 7.78125,14.4457031 7.78125,14.7421875 C7.78125,15.0883594 7.81739063,15.425625 7.88540625,15.75 Z M22.0545937,2.34717187 L21.9925313,2.12390625 C21.6766406,0.872625 20.5574531,0 19.265625,0 L4.734375,0 C3.44254688,0 2.32335937,0.872625 2.00746875,2.12390625 L1.94451563,2.35040625 C0.834984375,2.58632813 0,3.57384375 0,4.75270313 L0,6.5 C6.76353751e-17,7.05228475 0.44771525,7.5 1,7.5 L2.45929688,7.5 L2.45929688,7.5 L4.21839307,23.1119676 C4.27537997,23.617726 4.70314609,24 5.21210492,24 L18.7878951,24 C19.2968539,24 19.72462,23.617726 19.7816069,23.1119676 L21.5407031,7.5 L21.5407031,7.5 L23,7.5 C23.5522847,7.5 24,7.05228475 24,6.5 L24,4.75270313 L24,4.75270313 C24,3.5683125 23.1635625,2.57704687 22.0545937,2.34717187 Z" id="Fill-1"></path>
                    </g>
                    <g id="items-in-cart" transform="translate(15.000000, 0.000000)">
                        <circle id="Oval" fill="#8C746A" cx="7.5" cy="7.5" r="7.5"></circle>
                        <text id="1" font-family="Roboto-Medium, Roboto" font-size="12" font-weight="400" letter-spacing="-0.185" fill="#FFFFFF">
                            <tspan x="4" y="12">1</tspan>
                        </text>
                    </g>
                </g>
            </g>
        </g>
    </g>
</svg>