<?xml version="1.0" encoding="UTF-8"?>
<svg width="14px" height="12px" viewBox="0 0 14 12" version="1.1" xmlns="http://www.w3.org/2000/svg" xmlns:xlink="http://www.w3.org/1999/xlink">
    <title>distance</title>
    <g id="Page-1" stroke="none" stroke-width="1" fill="none" fill-rule="evenodd">
        <g id="04_choose-Machine" transform="translate(-16.000000, -577.000000)" fill="#514644">
            <g id="Location-Info-Card" transform="translate(0.000000, 527.000000)">
                <g id="Location-Name-+-Distance" transform="translate(16.000000, 16.000000)">
                    <g id="distance" transform="translate(0.000000, 34.000000)">
                        <g>
                            <path d="M10.8695652,8.69565217 C10.3026087,8.69565217 9.82434783,9.06 9.64521739,9.56521739 L4.26782609,9.56521739 C4.08782609,9.06 3.61043478,8.69565217 3.04347826,8.69565217 C2.32347826,8.69565217 1.73913043,9.28 1.73913043,10 C1.73913043,10.72 2.32347826,11.3043478 3.04347826,11.3043478 C3.61043478,11.3043478 4.08869565,10.94 4.26782609,10.4347826 L9.64521739,10.4347826 C9.82521739,10.94 10.3026087,11.3043478 10.8695652,11.3043478 C11.5895652,11.3043478 12.173913,10.72 12.173913,10 C12.173913,9.28 11.5895652,8.69565217 10.8695652,8.69565217" id="Fill-1"></path>
                            <path d="M1.73913043,3.04347826 C1.73913043,2.32347826 2.32347826,1.73913043 3.04347826,1.73913043 C3.76347826,1.73913043 4.34782609,2.32347826 4.34782609,3.04347826 C4.34782609,3.76347826 3.76347826,4.34782609 3.04347826,4.34782609 C2.32347826,4.34782609 1.73913043,3.76347826 1.73913043,3.04347826 Z M3.04347826,7.82608696 C3.16695652,7.82608696 3.28434783,7.77304348 3.36695652,7.68173913 C3.64521739,7.37130435 6.08695652,4.60521739 6.08695652,3.04347826 C6.08695652,1.36521739 4.72173913,0 3.04347826,0 C1.36521739,0 0,1.36521739 0,3.04347826 C0,4.60521739 2.44173913,7.37130435 2.72,7.68173913 C2.8026087,7.77304348 2.92,7.82608696 3.04347826,7.82608696 L3.04347826,7.82608696 Z" id="Fill-3"></path>
                            <path d="M9.56521739,3.04347826 C9.56521739,2.32347826 10.1495652,1.73913043 10.8695652,1.73913043 C11.5895652,1.73913043 12.173913,2.32347826 12.173913,3.04347826 C12.173913,3.76347826 11.5895652,4.34782609 10.8695652,4.34782609 C10.1495652,4.34782609 9.56521739,3.76347826 9.56521739,3.04347826 Z M10.8695652,7.82608696 C10.9930435,7.82608696 11.1104348,7.77304348 11.1930435,7.68173913 C11.4713043,7.37130435 13.9130435,4.60521739 13.9130435,3.04347826 C13.9130435,1.36521739 12.5478261,0 10.8695652,0 C9.19130435,0 7.82608696,1.36521739 7.82608696,3.04347826 C7.82608696,4.60521739 10.2678261,7.37130435 10.546087,7.68173913 C10.6286957,7.77304348 10.746087,7.82608696 10.8695652,7.82608696 L10.8695652,7.82608696 Z" id="Fill-5"></path>
                        </g>
                    </g>
                </g>
            </g>
        </g>
    </g>
</svg>