<?xml version="1.0" encoding="UTF-8"?>
<svg width="50px" height="51px" viewBox="0 0 50 51" version="1.1" xmlns="http://www.w3.org/2000/svg" xmlns:xlink="http://www.w3.org/1999/xlink">
    <title>Espresso</title>
    <defs>
        <polygon id="path-1" points="0 0.101486146 49.9653978 0.101486146 49.9653978 29.4233709 0 29.4233709"></polygon>
    </defs>
    <g id="Page-1" stroke="none" stroke-width="1" fill="none" fill-rule="evenodd">
        <g id="05_Select-drink" transform="translate(-33.000000, -124.000000)">
            <g id="Espresso" transform="translate(33.000000, 124.000000)">
                <g id="Group">
                    <g id="Group-4" transform="translate(0.000000, 20.931518)">
                        <mask id="mask-2" fill="white">
                            <use xlink:href="#path-1"></use>
                        </mask>
                        <g id="Clip-2"></g>
                        <path d="M20.3544304,28.4161209 C9.72151899,28.4161209 1.01265823,18.1660202 1.01265823,5.58173804 L1.01265823,1.11634761 L39.5949367,1.11634761 L39.5949367,5.58173804 C39.5949367,18.1660202 30.9873418,28.4161209 20.3544304,28.4161209" id="Fill-1" fill="#B98875" mask="url(#mask-2)"></path>
                        <path d="M47.6962025,8.62632242 C46.4810127,12.8887406 41.8227848,15.3244081 38.5822785,16.0348111 C39.8987342,12.7872544 40.6075949,9.23523929 40.6075949,5.68322418 L40.6075949,2.23269521 L43.9493671,2.23269521 C45.164557,2.23269521 46.3797468,2.84161209 47.0886076,3.85647355 C48,5.17579345 48.3037975,7.00254408 47.6962025,8.62632242 Z M38.5822785,5.58173804 C38.5822785,17.6585894 30.3797468,27.4012594 20.2531646,27.4012594 C10.1265823,27.4012594 2.02531646,17.6585894 2.02531646,5.58173804 L2.02531646,2.13120907 L38.5822785,2.13120907 L38.5822785,5.58173804 Z M43.9493671,0.101486146 L1.01265823,0.101486146 C0.405063291,0.101486146 0,0.50743073 0,1.11634761 L0,5.58173804 C0,18.774937 9.11392405,29.4309824 20.3544304,29.4309824 C27.6455696,29.4309824 34.0253165,24.8641058 37.5696203,18.1660202 C41.2151899,17.8615617 47.8987342,15.2229219 49.6202532,9.13375315 C50.3291139,6.90105793 49.9240506,4.46539043 48.6075949,2.53715365 C47.4936709,1.01486146 45.7721519,0.202972292 43.9493671,0.101486146 L43.9493671,0.101486146 Z" id="Fill-3" fill="#231514" mask="url(#mask-2)"></path>
                    </g>
                    <path d="M16.9113924,18.8003086 C17.5189873,18.8003086 17.9240506,18.394364 17.9240506,17.7854471 L17.9240506,6.92642947 C17.9240506,6.31751259 17.5189873,5.91156801 16.9113924,5.91156801 C16.3037975,5.91156801 15.8987342,6.31751259 15.8987342,6.92642947 L15.8987342,17.7854471 C15.8987342,18.2928778 16.3037975,18.8003086 16.9113924,18.8003086" id="Fill-5" fill="#231514"></path>
                    <path d="M23.6962025,18.8003086 C24.3037975,18.8003086 24.7088608,18.394364 24.7088608,17.7854471 L24.7088608,1.040233 C24.7088608,0.431316121 24.3037975,0.0253715365 23.6962025,0.0253715365 C23.0886076,0.0253715365 22.6835443,0.431316121 22.6835443,1.040233 L22.6835443,17.7854471 C22.6835443,18.2928778 23.1898734,18.8003086 23.6962025,18.8003086" id="Fill-6" fill="#231514"></path>
                </g>
            </g>
        </g>
    </g>
</svg>