<?xml version="1.0" encoding="UTF-8"?>
<svg width="23px" height="24px" viewBox="0 0 23 24" version="1.1" xmlns="http://www.w3.org/2000/svg" xmlns:xlink="http://www.w3.org/1999/xlink">
    <title>home</title>
    <g id="Page-1" stroke="none" stroke-width="1" fill="none" fill-rule="evenodd" opacity="0.5">
        <g id="05_Select-drink" transform="translate(-48.000000, -743.000000)" fill-rule="nonzero" stroke="#C28E79" stroke-width="2">
            <g id="iPhone-X/Bars/Tab-Bar/3-Items" transform="translate(0.000000, 728.000000)">
                <g id="home" transform="translate(49.000000, 16.000000)">
                    <path d="M14.2045955,21.4728404 L17.0087344,21.4728404 C17.2447602,21.4728404 17.471119,21.3790795 17.6380144,21.2121841 C17.8049098,21.0452886 17.8986707,20.8189299 17.8986707,20.5829041 L17.8986707,10.3906147 L20.4307913,10.3906147 C20.6729312,10.3889113 20.8898342,10.2404954 20.9791283,10.015415 C21.0684225,9.79033472 21.0122567,9.53358658 20.8371396,9.36634842 L11.1620208,0.258773888 C10.7949143,-0.0862579627 10.222768,-0.0862579627 9.85566147,0.258773888 L0.183900909,9.36634842 C0.00878381792,9.53358658 -0.0473819754,9.79033472 0.0419121836,10.015415 C0.131206343,10.2404954 0.348109358,10.3889113 0.590249182,10.3906147 L3.12236983,10.3906147 L3.12236983,20.5829041 C3.12236983,20.8189299 3.21613071,21.0452886 3.38302614,21.2121841 C3.54992157,21.3790795 3.77628035,21.4728404 4.01230613,21.4728404 L6.81644505,21.4728404 C7.37285816,21.4728404 7.82392011,21.0217784 7.82392011,20.4653653 L7.82392011,14.75634 C7.82392011,14.3853979 8.12462807,14.0846899 8.49557015,14.0846899 L12.5254704,14.0846899 C12.8964125,14.0846899 13.1971204,14.3853979 13.1971204,14.75634 L13.1971204,20.4653653 C13.1971204,21.0217784 13.6481824,21.4728404 14.2045955,21.4728404 Z"></path>
                </g>
            </g>
        </g>
    </g>
</svg>