<?xml version="1.0" encoding="UTF-8"?>
<svg width="41px" height="59px" viewBox="0 0 41 59" version="1.1" xmlns="http://www.w3.org/2000/svg" xmlns:xlink="http://www.w3.org/1999/xlink">
    <title>latte</title>
    <defs>
        <polygon id="path-1" points="0.00763975155 0.045989083 40.954407 0.045989083 40.954407 59 0.00763975155 59"></polygon>
    </defs>
    <g id="Page-1" stroke="none" stroke-width="1" fill="none" fill-rule="evenodd">
        <g id="05_Select-drink" transform="translate(-33.000000, -538.000000)">
            <g id="latte" transform="translate(33.000000, 538.000000)">
                <g>
                    <path d="M2.81906832,10.2541485 L2.81906832,9.22358079 C2.81906832,6.5441048 4.95819876,4.48296943 7.50478261,4.48296943 C8.01397205,4.48296943 8.6252795,4.5860262 9.13459627,4.79213974 C9.84763975,2.6279476 12.3942236,1.08209607 15.3481335,1.08209607 C18.3021708,1.08209607 20.848882,2.6279476 21.4599348,4.79213974 C21.9692516,4.5860262 22.4785683,4.48296943 22.9878851,4.48296943 C25.6363323,4.48296943 27.6735994,6.64716157 27.7754627,9.22358079 L27.7754627,10.2541485 L2.81906832,10.2541485" id="Fill-1" fill="#C69A80"></path>
                    <path d="M15.3481335,46.2209607 C12.3942236,46.2209607 9.64391304,44.8812227 7.81037267,42.6139738 C4.24515528,38.6978166 2.10602484,31.8960699 1.39285404,22.2087336 L1.18912733,21.1781659 L29.303413,21.1781659 L29.201677,22.3117904 C28.3867702,31.9991266 26.2475124,38.8008734 22.7842857,42.7170306 C21.0524814,44.8812227 18.3021708,46.2209607 15.3481335,46.2209607" id="Fill-2" fill="#CF9775"></path>
                    <g id="Group-6">
                        <mask id="mask-2" fill="white">
                            <use xlink:href="#path-1"></use>
                        </mask>
                        <g id="Clip-4"></g>
                        <path d="M1.18912733,21.1781659 L1.08726398,20.1475983 C0.883537267,16.1283843 0.985400621,12.7275109 0.985400621,11.0786026 L0.985400621,10.0480349 L29.303413,10.0480349 L29.303413,11.0786026 C29.4052764,12.7275109 29.5071398,16.0253275 29.2015497,20.1475983 L29.2015497,21.1781659 L1.18912733,21.1781659" id="Fill-3" fill="#FDE9DA" mask="url(#mask-2)"></path>
                        <path d="M32.3593137,31.2777293 C31.2389441,31.2777293 30.2203106,30.968559 29.303413,30.4532751 C30.1183199,26.5371179 30.5259006,22.5179039 30.6276366,18.3956332 C34.091118,17.3650655 37.6563354,19.4262009 38.6749689,22.930131 C39.6936025,26.4340611 37.6563354,30.041048 34.192854,31.0716157 C33.5818012,31.2777293 32.9704938,31.2777293 32.3593137,31.2777293 Z M28.3866429,20.1475983 L2.2078882,20.1475983 C2.00416149,16.1283843 2.10602484,12.7275109 2.10602484,11.1816594 L28.4886335,11.1816594 C28.5903855,12.8305677 28.6922329,16.1283843 28.3866429,20.1475983 Z M22.1729783,41.9956332 C19.0152143,45.8087336 13.4127298,46.3240175 9.64391304,43.1292576 C9.23645963,42.8200873 8.82900621,42.4078603 8.52341615,41.9956332 C4.44888199,37.4611354 2.92080435,29.2165939 2.41148758,22.2087336 L28.3867702,22.2087336 C27.7754627,29.2165939 26.2475124,37.4611354 22.1729783,41.9956332 Z M16.8760839,56.8358079 L13.8201832,56.8358079 L13.8201832,47.1484716 C14.3295,47.2515284 14.8388168,47.2515284 15.3481335,47.2515284 C15.8574503,47.2515284 16.3667671,47.1484716 16.8760839,47.1484716 L16.8760839,56.8358079 Z M7.60664596,5.41048035 C8.01397205,5.41048035 8.4215528,5.51353712 8.82900621,5.71965066 C9.03273292,5.82270742 9.33832298,5.82270742 9.64391304,5.71965066 C9.84763975,5.61659389 10.0513665,5.41048035 10.1532298,5.10131004 C10.6625466,3.24628821 12.903413,2.00960699 15.3481335,2.00960699 C17.792854,2.00960699 20.0338478,3.24628821 20.5431646,4.99825328 C20.7468913,5.51353712 21.2562081,5.82270742 21.8673882,5.61659389 C22.2748416,5.51353712 22.682295,5.41048035 23.0897484,5.41048035 C25.1270155,5.41048035 26.7568292,7.05938865 26.8586925,9.12052402 L3.83757453,9.12052402 C3.83757453,7.05938865 5.56937888,5.41048035 7.60664596,5.41048035 Z M32.3593137,16.1283843 C31.7482609,16.1283843 31.2389441,16.231441 30.6276366,16.3344978 C30.6276366,12.8305677 30.5259006,10.460262 30.5259006,10.1510917 C30.5259006,9.63580786 30.0165839,9.22358079 29.5072671,9.22358079 L28.7940963,9.22358079 C28.7940963,6.02882096 26.1457764,3.45240175 22.9878851,3.45240175 C22.682295,3.45240175 22.3768323,3.45240175 22.0711149,3.55545852 C20.645028,1.28820961 17.9965807,-0.0515283843 15.3481335,0.0515283843 C12.597823,-0.0515283843 10.0513665,1.28820961 8.6252795,3.55545852 C8.31968944,3.45240175 7.91223602,3.45240175 7.60664596,3.45240175 C4.44888199,3.45240175 1.90229814,6.02882096 1.80030745,9.22358079 L1.18912733,9.22358079 C0.679810559,9.22358079 0.170493789,9.63580786 0.170493789,10.1510917 C0.0686304348,11.0786026 -1.45919255,34.060262 6.99533851,43.4384279 C8.31968944,44.8812227 9.94950311,46.0148472 11.7830435,46.7362445 L11.7830435,56.9388646 L6.48602174,56.9388646 C5.87484161,56.9388646 5.4673882,57.3510917 5.4673882,57.9694323 C5.4673882,58.5877729 5.87484161,59 6.48602174,59 L25.3307422,59 C25.9419224,59 26.3493758,58.5877729 26.3493758,57.9694323 C26.3493758,57.3510917 25.9419224,56.9388646 25.3307422,56.9388646 L19.0152143,56.9388646 L19.0152143,46.7362445 C20.8487547,46.1179039 22.4785683,44.9842795 23.8027919,43.4384279 C26.2475124,40.6558952 27.8773261,36.8427948 28.8959596,32.6174672 C33.1742205,34.5755459 38.2673882,32.6174672 40.2027919,28.289083 C42.1381957,23.9606987 40.2027919,18.8078603 35.9245311,16.8497817 C34.7021708,16.3344978 33.4798106,16.1283843 32.3593137,16.1283843 L32.3593137,16.1283843 Z" id="Fill-5" fill="#231514" mask="url(#mask-2)"></path>
                    </g>
                </g>
            </g>
        </g>
    </g>
</svg>