<?xml version="1.0" encoding="UTF-8"?>
<svg width="22px" height="27px" viewBox="0 0 22 27" version="1.1" xmlns="http://www.w3.org/2000/svg" xmlns:xlink="http://www.w3.org/1999/xlink">
    <title>locate</title>
    <g id="Page-1" stroke="none" stroke-width="1" fill="none" fill-rule="evenodd">
        <g id="05_Select-drink" transform="translate(-134.000000, -741.000000)" stroke="#B98068" stroke-width="2">
            <g id="iPhone-X/Bars/Tab-Bar/3-Items" transform="translate(0.000000, 728.000000)">
                <g id="locate" transform="translate(135.000000, 14.000000)">
                    <path d="M9.96488599,0.0256043123 C4.47172638,0.0256043123 0,4.41936831 0,9.81675735 C0,10.4311328 0.0572638436,11.0506932 0.17713355,11.655083 C0.18247557,11.690801 0.203322476,11.7985951 0.245081433,11.9828822 C0.395960912,12.6434734 0.62019544,13.293823 0.912052117,13.9134473 C1.98566775,16.3971296 4.34651466,20.2119801 9.52690554,24.2984284 C9.6571987,24.4009736 9.81374593,24.4522463 9.96996743,24.4522463 C10.1264495,24.4522463 10.2827362,24.4009736 10.4130293,24.2984284 C15.5883388,20.2119801 17.9545277,16.3971296 19.0278827,13.9134473 C19.3198046,13.293823 19.5439739,12.6484663 19.695114,11.9828822 C19.736873,11.7985951 19.7577199,11.690801 19.7628013,11.655083 C19.8775896,11.0506932 19.9399349,10.4311328 19.9399349,9.81675735 C19.929772,4.41936831 15.4580456,0.0256043123 9.96488599,0.0256043123 Z M9.96488599,14.7583256 C7.24957655,14.7583256 5.04501629,12.5869519 5.04501629,9.92429546 C5.04501629,7.26131896 7.25465798,5.0902013 9.96488599,5.0902013 C12.6748534,5.0902013 14.8846906,7.26131896 14.8846906,9.92429546 C14.8846906,12.5869519 12.6801954,14.7583256 9.96488599,14.7583256 Z" id="Fill-1"></path>
                </g>
            </g>
        </g>
    </g>
</svg>