<?xml version="1.0" encoding="UTF-8"?>
<svg width="37px" height="55px" viewBox="0 0 37 55" version="1.1" xmlns="http://www.w3.org/2000/svg" xmlns:xlink="http://www.w3.org/1999/xlink">
    <title>macciato</title>
    <defs>
        <polygon id="path-1" points="0.00765517241 0.0258823529 36.9489655 0.0258823529 36.9489655 54.9922353 0.00765517241 54.9922353"></polygon>
    </defs>
    <g id="Page-1" stroke="none" stroke-width="1" fill="none" fill-rule="evenodd">
        <g id="05_Select-drink" transform="translate(-35.000000, -334.000000)">
            <g id="macciato" transform="translate(35.000000, 334.000000)">
                <g>
                    <polyline id="Fill-1" fill="#C69A80" points="9.39034483 53.8611765 7.85931034 43.0941176 29.0896552 43.0941176 27.5586207 53.8611765 9.39034483 53.8611765"></polyline>
                    <polyline id="Fill-2" fill="#C69A80" points="6.2262069 9.03294118 6.2262069 5.51294118 29.8041379 1.06117647 29.8041379 9.03294118 6.2262069 9.03294118"></polyline>
                    <path d="M19.9034483,30.4635294 C18.3724138,30.6705882 16.9434483,31.4988235 16.0248276,32.7411765 C15.4124138,33.4658824 14.902069,34.2941176 14.5958621,35.2258824 C15.4124138,34.3976471 16.4331034,33.6729412 17.5558621,33.1552941 C18.8827586,32.4305882 19.9034483,31.9129412 20.4137931,30.5670588 C20.2096552,30.5670588 20.0055172,30.4635294 19.9034483,30.4635294 Z M16.5351724,39.2635294 C16.7393103,39.2635294 16.8413793,39.3670588 17.0455172,39.3670588 C18.5765517,39.16 20.0055172,38.3317647 20.9241379,37.0894118 C21.6386207,36.2611765 22.2510345,35.2258824 22.4551724,34.0870588 C21.6386207,34.9152941 20.72,35.64 19.5972414,36.0541176 C18.1682759,36.7788235 17.0455172,37.5035294 16.5351724,39.2635294 Z M7.85931034,43.0941176 L5.40965517,25.9082353 L31.5393103,25.9082353 L29.0896552,43.0941176 L7.85931034,43.0941176 L7.85931034,43.0941176 Z" id="Fill-3" fill="#B98875"></path>
                    <polygon id="Fill-4" fill="#EABFA5" points="1.02068966 15.9694118 36.0303448 15.9694118 36.0303448 9.03294118 1.02068966 9.03294118"></polygon>
                    <g id="Group-8">
                        <mask id="mask-2" fill="white">
                            <use xlink:href="#path-1"></use>
                        </mask>
                        <g id="Clip-6"></g>
                        <polyline id="Fill-5" fill="#C69A80" mask="url(#mask-2)" points="5.40965517 25.9082353 3.98068966 15.9694118 32.9682759 15.9694118 31.5393103 25.9082353 5.40965517 25.9082353"></polyline>
                        <path d="M32.9682759,14.9341176 L2.04137931,14.9341176 L2.04137931,10.0682353 L35.0096552,10.0682353 L35.0096552,14.9341176 L32.9682759,14.9341176 Z M30.6206897,24.8729412 L6.32827586,24.8729412 L5.20551724,17.0047059 L31.7434483,17.0047059 L30.6206897,24.8729412 Z M28.1710345,42.0588235 L8.77793103,42.0588235 L6.63448276,26.9435294 L30.4165517,26.9435294 L28.1710345,42.0588235 Z M26.742069,52.8258824 L10.2068966,52.8258824 L8.98206897,44.2329412 L27.8648276,44.2329412 L26.742069,52.8258824 Z M7.24689655,6.34117647 L28.7834483,2.30352941 L28.7834483,7.99764706 L7.24689655,7.99764706 L7.24689655,6.34117647 Z M34.9075862,7.99764706 L30.7227586,7.99764706 L30.7227586,1.06117647 C30.7227586,0.44 30.3144828,0.0258823529 29.702069,0.0258823529 C29.6,0.0258823529 29.6,0.0258823529 29.497931,0.0258823529 L6.02206897,4.47764706 C5.51172414,4.58117647 5.20551724,4.99529412 5.20551724,5.51294118 L5.20551724,7.99764706 L2.04137931,7.99764706 C0.91862069,7.99764706 0,8.92941176 0,10.0682353 L0,15.0376471 C0,16.1764706 0.91862069,17.1082353 2.04137931,17.1082353 L3.16413793,17.1082353 L8.36965517,54.0682353 C8.47172414,54.5858824 8.88,55 9.39034483,55 L27.5586207,55 C28.0689655,55 28.4772414,54.5858824 28.5793103,54.0682353 L33.7848276,17.0047059 L34.9075862,17.0047059 C36.0303448,17.0047059 36.9489655,16.0729412 36.9489655,14.9341176 L36.9489655,10.0682353 C36.9489655,8.92941176 36.0303448,7.99764706 34.9075862,7.99764706 L34.9075862,7.99764706 Z" id="Fill-7" fill="#231514" mask="url(#mask-2)"></path>
                    </g>
                    <path d="M21.5365517,30.0494118 C20.1075862,28.8070588 17.2496552,29.7388235 15.2082759,32.12 C13.1668966,34.5011765 12.6565517,37.5035294 14.1875862,38.7458824 C15.0041379,33.1552941 20.617931,35.0188235 21.5365517,30.0494118" id="Fill-9" fill="#FDE9DA"></path>
                    <path d="M15.4124138,39.7811765 C16.8413793,41.0235294 19.6993103,40.0917647 21.7406897,37.7105882 C23.782069,35.3294118 24.2924138,32.3270588 22.7613793,31.0847059 C21.8427586,36.0541176 16.2289655,34.1905882 15.4124138,39.7811765" id="Fill-10" fill="#FDE9DA"></path>
                </g>
            </g>
        </g>
    </g>
</svg>