<?xml version="1.0" encoding="UTF-8"?>
<svg width="35px" height="56px" viewBox="0 0 35 56" version="1.1" xmlns="http://www.w3.org/2000/svg" xmlns:xlink="http://www.w3.org/1999/xlink">
    <title>Mocha</title>
    <defs>
        <polygon id="path-1" points="0.00766423358 0.0870164256 34.8727737 0.0870164256 34.8727737 56 0.00766423358 56"></polygon>
    </defs>
    <g id="Page-1" stroke="none" stroke-width="1" fill="none" fill-rule="evenodd">
        <g id="05_Select-drink" transform="translate(-36.000000, -436.000000)">
            <g id="Mocha" transform="translate(36.000000, 436.000000)">
                <g id="Group">
                    <path d="M1.73722628,9.76146789 L2.45255474,8.32280734 C3.16788321,6.78152294 5.10948905,4.11009174 9.7080292,4.11009174 C11.4452555,4.11009174 13.1824818,4.41834862 14.919708,5.03486239 C15.8394161,5.34299083 16.7591241,5.54862385 17.6788321,5.65137615 C18.4963504,5.754 19.2116788,5.44587156 19.7226277,4.8293578 C20.1313869,4.2127156 20.3357664,3.49357798 20.2335766,2.77418349 L20.1313869,1.02752294 L21.6642336,1.74678899 C22.8905109,2.26055046 23.810219,3.18519266 24.5255474,4.31559633 C25.3430657,5.754 25.649635,7.39816514 25.3430657,8.93944954 L25.2408759,9.86409174 L1.73722628,9.76146789" id="Fill-1" fill="#FDE9DA"></path>
                    <polyline id="Fill-2" fill="#C69A80" points="6.84671533 55.0751009 3.16788321 25.9963303 24.0145985 25.9963303 20.3357664 55.0751009 6.84671533 55.0751009"></polyline>
                    <g id="Group-6">
                        <mask id="mask-2" fill="white">
                            <use xlink:href="#path-1"></use>
                        </mask>
                        <g id="Clip-4"></g>
                        <polyline id="Fill-3" fill="#C69A80" mask="url(#mask-2)" points="3.16788321 25.9963303 1.12408759 9.76146789 26.0583942 9.76146789 24.0145985 25.9963303 3.16788321 25.9963303"></polyline>
                        <path d="M25.5474453,37.812844 C24.9343066,37.812844 24.2189781,37.7100917 23.6058394,37.5045872 L25.3430657,23.5302752 L25.5474453,23.5302752 C29.4306569,23.9412844 32.3941606,27.4348624 31.9854015,31.3394495 C31.6788321,34.8328991 29.0218978,37.5045872 25.5474453,37.812844 Z M23.0948905,24.9688073 L4.08759124,24.9688073 L2.24817518,10.7889908 L24.9343066,10.7889908 L23.0948905,24.9688073 Z M19.4160584,54.047578 L7.76642336,54.047578 L4.2919708,27.0238532 L22.7883212,27.0238532 L19.4160584,54.047578 Z M9.7080292,5.03486239 C11.3430657,5.03486239 12.9781022,5.34299083 14.6131387,5.85688073 C15.6350365,6.26776147 16.6569343,6.4733945 17.6788321,6.4733945 C18.8029197,6.57614679 19.8248175,6.06238532 20.540146,5.24023853 C21.1532847,4.41834862 21.3576642,3.49357798 21.2554745,2.56880734 C22.2773723,3.08256881 23.0948905,3.80183486 23.7080292,4.72647706 C24.4233577,5.95963303 24.6277372,7.2952844 24.4233577,8.63119266 L3.27007299,8.63119266 C3.98540146,7.2952844 5.62043796,5.03486239 9.7080292,5.03486239 Z M25.5474453,21.4752294 L26.9781022,9.86409174 C26.9781022,9.45321101 26.7737226,9.04220183 26.3649635,8.83656881 C26.6715328,7.08990826 26.2627737,5.24023853 25.3430657,3.69895413 C24.1167883,1.84954128 22.1751825,0.616513761 20.1313869,0.102752294 C19.620438,1.11022302e-16 19.0072993,0.411009174 19.0072993,1.02752294 C19.0072993,1.13027523 19.0072993,1.23302752 19.0072993,1.33577982 C19.3138686,2.26055046 19.3138686,3.18519266 18.9051095,4.11009174 C18.5985401,4.41834862 18.0875912,4.62385321 17.5766423,4.52110092 C16.7591241,4.52110092 15.9416058,4.31559633 15.2262774,4.00733945 C13.3868613,3.39082569 11.5474453,3.08256881 9.60583942,2.97981651 C4.2919708,2.97981651 1.83941606,6.3706422 1.02189781,8.63119266 C0.408759124,8.63119266 0,9.04220183 0,9.6587156 L0,9.76146789 L5.72262774,55.0751009 C5.82481752,55.5888624 6.23357664,56 6.74452555,56 L20.2335766,56 C20.7445255,56 21.1532847,55.5888624 21.2554745,55.0751009 L23.1970803,39.5595046 C28.1021898,40.8952844 33.2116788,38.1209725 34.540146,33.1888624 C35.8686131,28.2567523 33.1094891,23.1191376 28.2043796,21.7833578 C27.3868613,21.5779817 26.4671533,21.4752294 25.5474453,21.4752294 L25.5474453,21.4752294 Z" id="Fill-5" fill="#231514" mask="url(#mask-2)"></path>
                    </g>
                </g>
            </g>
        </g>
    </g>
</svg>