<?xml version="1.0" encoding="UTF-8"?>
<svg width="22px" height="23px" viewBox="0 0 22 23" version="1.1" xmlns="http://www.w3.org/2000/svg" xmlns:xlink="http://www.w3.org/1999/xlink">
    <title>profile</title>
    <g id="Page-1" stroke="none" stroke-width="1" fill="none" fill-rule="evenodd" opacity="0.5">
        <g id="05_Select-drink" transform="translate(-309.000000, -743.000000)" fill-rule="nonzero" stroke="#C28E79" stroke-width="2">
            <g id="iPhone-X/Bars/Tab-Bar/3-Items" transform="translate(0.000000, 728.000000)">
                <g id="profile" transform="translate(310.000000, 16.000000)">
                    <path d="M19.6875006,17.5284375 L19.6875006,20.34375 C19.6875006,20.7061869 19.3936872,21 19.0312503,21 L0.656250298,21 C0.293813431,21 0,20.7061869 0,20.34375 L0,17.5284375 C-0.000508155422,16.4583315 0.648610335,15.4950397 1.6406253,15.09375 L6.5625003,13.125 L6.5625003,9.24984375 C5.9539911,8.89852129 5.57884601,8.24952029 5.5781253,7.546875 L5.5781253,4.265625 C5.5781253,1.90978536 7.48791066,0 9.8437503,0 C12.1995899,0 14.1093753,1.90978536 14.1093753,4.265625 L14.1093753,7.546875 C14.1086546,8.24952029 13.7335095,8.89852129 13.1250003,9.24984375 L13.1250003,13.125 L18.0468753,15.09375 C19.0388903,15.4950397 19.6880088,16.4583315 19.6875006,17.5284375 Z"></path>
                </g>
            </g>
        </g>
    </g>
</svg>