<?xml version="1.0" encoding="UTF-8"?>
<svg width="29px" height="44px" viewBox="0 0 29 44" version="1.1" xmlns="http://www.w3.org/2000/svg" xmlns:xlink="http://www.w3.org/1999/xlink">
    <title>Group Copy 2</title>
    <g id="Page-1" stroke="none" stroke-width="1" fill="none" fill-rule="evenodd" opacity="0.388671875">
        <g id="06_Customize-drink" transform="translate(-261.000000, -397.000000)" fill="#2D140D">
            <g id="size" transform="translate(29.000000, 397.000000)">
                <g id="Group-3" transform="translate(123.000000, 0.000000)">
                    <g id="Group-Copy-2" transform="translate(109.000000, 0.000000)">
                        <path d="M25.5615517,11.6678049 L1.58275862,11.6678049 L1.58275862,7.86616309 L27.1443103,7.86616309 L27.1443103,11.6678049 L25.5615517,11.6678049 Z M23.7413793,19.4328605 L4.90655172,19.4328605 L4.03603448,13.2855248 L24.6118966,13.2855248 L23.7413793,19.4328605 Z M21.842069,32.8599358 L6.80586207,32.8599358 L5.14396552,21.0505804 L23.5831034,21.0505804 L21.842069,32.8599358 Z M20.7341379,41.2720793 L7.9137931,41.2720793 L6.96413793,34.5585417 L21.6046552,34.5585417 L20.7341379,41.2720793 Z M5.6187931,4.95426724 L22.3168966,1.79971341 L22.3168966,6.24844317 L5.6187931,6.24844317 L5.6187931,4.95426724 Z M27.0651724,6.24844317 L23.8205172,6.24844317 L23.8205172,0.829081457 C23.8205172,0.343765482 23.5039655,0.0202214989 23.0291379,0.0202214989 C22.95,0.0202214989 22.95,0.0202214989 22.8708621,0.0202214989 L4.66913793,3.49831932 C4.27344828,3.57920531 4.03603448,3.9027493 4.03603448,4.30717928 L4.03603448,6.24844317 L1.58275862,6.24844317 C0.712241379,6.24844317 0,6.97641714 0,7.86616309 L0,11.7486909 C0,12.6384368 0.712241379,13.3664108 1.58275862,13.3664108 L2.45327586,13.3664108 L6.48931034,42.2427113 C6.56844828,42.6471413 6.885,42.9706853 7.28068966,42.9706853 L21.3672414,42.9706853 C21.762931,42.9706853 22.0794828,42.6471413 22.1586207,42.2427113 L26.1946552,13.2855248 L27.0651724,13.2855248 C27.9356897,13.2855248 28.647931,12.5575508 28.647931,11.6678049 L28.647931,7.86616309 C28.647931,6.97641714 27.9356897,6.24844317 27.0651724,6.24844317 L27.0651724,6.24844317 Z" id="Fill-7"></path>
                    </g>
                </g>
            </g>
        </g>
    </g>
</svg>