<?xml version="1.0" encoding="UTF-8"?>
<svg width="22px" height="27px" viewBox="0 0 22 27" version="1.1" xmlns="http://www.w3.org/2000/svg" xmlns:xlink="http://www.w3.org/1999/xlink">
    <title>Group Copy 3</title>
    <g id="Page-1" stroke="none" stroke-width="1" fill="none" fill-rule="evenodd" opacity="0.388671875">
        <g id="06_Customize-drink" transform="translate(-151.000000, -414.000000)" fill="#2D140D" stroke="#2D140D" stroke-width="0.3">
            <g id="size" transform="translate(29.000000, 397.000000)">
                <g id="Group-3" transform="translate(123.000000, 0.000000)">
                    <g id="Group-Copy-3" transform="translate(0.000000, 17.718750)">
                        <path d="M1.11724138,3.56302065 L1.11724138,1.65835494 L19.1606897,1.65835494 L19.1606897,3.56302065 L1.11724138,3.56302065 Z M16.7586207,9.04423636 L3.46344828,9.04423636 L2.84896552,4.70494059 L17.3731034,4.70494059 L16.7586207,9.04423636 Z M15.417931,18.5221719 L4.80413793,18.5221719 L3.63103448,10.1861563 L16.6468966,10.1861563 L15.417931,18.5221719 Z M14.6358621,24.4601556 L5.5862069,24.4601556 L4.91586207,19.7211878 L15.2503448,19.7211878 L14.6358621,24.4601556 Z M1.11724138,0.516435001 C0.502758621,0.516435001 0,1.03029897 0,1.65835494 L0,3.62011664 C0,4.24817261 0.502758621,4.76203658 1.11724138,4.76203658 L1.73172414,4.76203658 L4.58068966,25.1453075 C4.63655172,25.4307875 4.86,25.6591715 5.13931034,25.6591715 L15.0827586,25.6591715 C15.362069,25.6591715 15.5855172,25.4307875 15.6413793,25.1453075 L18.4903448,4.70494059 L19.1048276,4.70494059 C19.7193103,4.70494059 20.222069,4.19107661 20.222069,3.56302065 L20.222069,1.65835494 C20.222069,1.03029897 19.7193103,0.516435001 19.1048276,0.516435001 L1.11724138,0.516435001 Z" id="Fill-7"></path>
                    </g>
                </g>
            </g>
        </g>
    </g>
</svg>