<?xml version="1.0" encoding="UTF-8"?>
<svg width="26px" height="38px" viewBox="0 0 26 38" version="1.1" xmlns="http://www.w3.org/2000/svg" xmlns:xlink="http://www.w3.org/1999/xlink">
    <title>Group Copy</title>
    <g id="Page-1" stroke="none" stroke-width="1" fill="none" fill-rule="evenodd">
        <g id="06_Customize-drink" transform="translate(-205.000000, -403.000000)" fill="#2D140D" stroke="#2D140D">
            <g id="size" transform="translate(29.000000, 397.000000)">
                <g id="Group-3" transform="translate(123.000000, 0.000000)">
                    <g id="Group-Copy" transform="translate(54.000000, 7.000000)">
                        <path d="M21.8025,9.83756099 L1.35,9.83756099 L1.35,6.63225515 L23.1525,6.63225515 L23.1525,9.83756099 L21.8025,9.83756099 Z M20.25,16.3845686 L4.185,16.3845686 L3.4425,11.2015209 L20.9925,11.2015209 L20.25,16.3845686 Z M18.63,27.7054361 L5.805,27.7054361 L4.3875,17.7485286 L20.115,17.7485286 L18.63,27.7054361 Z M17.685,34.7980277 L6.75,34.7980277 L5.94,29.137594 L18.4275,29.137594 L17.685,34.7980277 Z M4.7925,4.17712728 L19.035,1.51740542 L19.035,5.26829522 L4.7925,5.26829522 L4.7925,4.17712728 Z M23.085,5.26829522 L20.3175,5.26829522 L20.3175,0.699029464 C20.3175,0.289841485 20.0475,0.0170494991 19.6425,0.0170494991 C19.575,0.0170494991 19.575,0.0170494991 19.5075,0.0170494991 L3.9825,2.94956335 C3.645,3.01776134 3.4425,3.29055333 3.4425,3.63154331 L3.4425,5.26829522 L1.35,5.26829522 C0.6075,5.26829522 0,5.88207719 0,6.63225515 L0,9.90575898 C0,10.6559369 0.6075,11.2697189 1.35,11.2697189 L2.0925,11.2697189 L5.535,35.6164036 C5.6025,35.9573936 5.8725,36.2301856 6.21,36.2301856 L18.225,36.2301856 C18.5625,36.2301856 18.8325,35.9573936 18.9,35.6164036 L22.3425,11.2015209 L23.085,11.2015209 C23.8275,11.2015209 24.435,10.5877389 24.435,9.83756099 L24.435,6.63225515 C24.435,5.88207719 23.8275,5.26829522 23.085,5.26829522 L23.085,5.26829522 Z" id="Fill-7"></path>
                    </g>
                </g>
            </g>
        </g>
    </g>
</svg>