<?xml version="1.0" encoding="UTF-8"?>
<svg width="26px" height="24px" viewBox="0 0 26 24" version="1.1" xmlns="http://www.w3.org/2000/svg" xmlns:xlink="http://www.w3.org/1999/xlink">
    <title>Group 4 Copy 3</title>
    <g id="Page-1" stroke="none" stroke-width="1" fill="none" fill-rule="evenodd" opacity="0.400000006">
        <g id="06_Customize-drink" transform="translate(-316.000000, -485.000000)" stroke="#2D140D" stroke-width="2">
            <g id="sugar" transform="translate(29.000000, 486.000000)">
                <g id="Group-4-Copy-3" transform="translate(288.000000, 0.000000)">
                    <g id="Group-10">
                        <path d="M23.2,19.962963 C23.2,20.6379861 22.66275,21.1851852 22,21.1851852 L14.8,21.1851852 C14.13725,21.1851852 13.6,20.6379861 13.6,19.962963 L13.6,12.6296296 C13.6,11.9546065 14.13725,11.4074074 14.8,11.4074074 L22,11.4074074 C22.66275,11.4074074 23.2,11.9546065 23.2,12.6296296 L23.2,19.962963 Z M10.4,12.6296296 L10.4,19.962963 C10.4,20.6379861 9.86275,21.1851852 9.2,21.1851852 L2,21.1851852 C1.33725,21.1851852 0.8,20.6379861 0.8,19.962963 L0.8,12.6296296 C0.8,11.9546065 1.33725,11.4074074 2,11.4074074 L9.2,11.4074074 C9.86275,11.4074074 10.4,11.9546065 10.4,12.6296296 Z M7.2,9.37037037 L7.2,2.03703704 C7.2,1.36201389 7.73725,0.814814815 8.4,0.814814815 L15.6,0.814814815 C16.26275,0.814814815 16.8,1.36201389 16.8,2.03703704 L16.8,9.37037037 C16.8,10.0453935 16.26275,10.5925926 15.6,10.5925926 L8.4,10.5925926 C7.73725,10.5925926 7.2,10.0453935 7.2,9.37037037 Z" id="Fill-9"></path>
                    </g>
                </g>
            </g>
        </g>
    </g>
</svg>