<?xml version="1.0" encoding="UTF-8"?>
<svg width="26px" height="19px" viewBox="0 0 26 19" version="1.1" xmlns="http://www.w3.org/2000/svg" xmlns:xlink="http://www.w3.org/1999/xlink">
    <title>Group 4 Copy 2</title>
    <g id="Page-1" stroke="none" stroke-width="1" fill="none" fill-rule="evenodd">
        <g id="06_Customize-drink" transform="translate(-261.000000, -487.000000)" stroke="#2D140D" stroke-width="3">
            <g id="sugar" transform="translate(29.000000, 486.000000)">
                <g id="Group-4-Copy-2" transform="translate(233.000000, 3.000000)">
                    <g id="Group-10">
                        <path d="M23.2,13.962963 C23.2,14.6379861 22.66275,15.1851852 22,15.1851852 L14.8,15.1851852 C14.13725,15.1851852 13.6,14.6379861 13.6,13.962963 L13.6,6.62962963 C13.6,5.95460648 14.13725,5.40740741 14.8,5.40740741 L22,5.40740741 C22.66275,5.40740741 23.2,5.95460648 23.2,6.62962963 L23.2,13.962963 Z M10.4,1.62962963 L10.4,8.96296296 C10.4,9.63798611 9.86275,10.1851852 9.2,10.1851852 L2,10.1851852 C1.33725,10.1851852 0.8,9.63798611 0.8,8.96296296 L0.8,1.62962963 C0.8,0.954606481 1.33725,0.407407407 2,0.407407407 L9.2,0.407407407 C9.86275,0.407407407 10.4,0.954606481 10.4,1.62962963 Z" id="Fill-9"></path>
                    </g>
                </g>
            </g>
        </g>
    </g>
</svg>