<?xml version="1.0" encoding="UTF-8"?>
<svg width="14px" height="14px" viewBox="0 0 14 14" version="1.1" xmlns="http://www.w3.org/2000/svg" xmlns:xlink="http://www.w3.org/1999/xlink">
    <title>time</title>
    <g id="Page-1" stroke="none" stroke-width="1" fill="none" fill-rule="evenodd">
        <g id="04_choose-Machine" transform="translate(-123.000000, -575.000000)" fill="#514644">
            <g id="Location-Info-Card" transform="translate(0.000000, 527.000000)">
                <g id="Location-Name-+-Distance" transform="translate(16.000000, 16.000000)">
                    <g id="time" transform="translate(107.000000, 32.000000)">
                        <path d="M6.97541026,0.0488205128 C3.12917949,0.0488205128 0,3.178 0,7.02423077 C0,10.870641 3.12917949,13.9998205 6.97541026,13.9998205 C10.8218205,13.9998205 13.951,10.870641 13.951,7.02423077 C13.951,3.178 10.8218205,0.0488205128 6.97541026,0.0488205128 Z M6.97541026,12.5154615 C3.948,12.5154615 1.48435897,10.052359 1.48435897,7.02423077 C1.48435897,3.99610256 3.948,1.53317949 6.97541026,1.53317949 C10.0035385,1.53317949 12.467359,3.99610256 12.467359,7.02423077 C12.467359,10.052359 10.0035385,12.5154615 6.97541026,12.5154615 Z" id="Fill-1"></path>
                        <path d="M10.6107436,6.80902564 L7.476,6.80902564 L7.476,3.03979487 C7.476,2.72282051 7.21951282,2.46561538 6.90182051,2.46561538 C6.58502564,2.46561538 6.32764103,2.72282051 6.32764103,3.03979487 L6.32764103,7.38320513 C6.32764103,7.70089744 6.58502564,7.9575641 6.90182051,7.9575641 L10.6107436,7.9575641 C10.9284359,7.9575641 11.185641,7.70089744 11.185641,7.38320513 C11.185641,7.06641026 10.9284359,6.80902564 10.6107436,6.80902564 Z" id="Fill-2"></path>
                    </g>
                </g>
            </g>
        </g>
    </g>
</svg>